<?xml version="1.0" encoding="UTF-8" standalone="no"?><!DOCTYPE svg PUBLIC "-//W3C//DTD SVG 1.1//EN" "http://www.w3.org/Graphics/SVG/1.1/DTD/svg11.dtd"><svg width="100%" height="100%" viewBox="0 0 1003 1003" version="1.1" xmlns="http://www.w3.org/2000/svg" xmlns:xlink="http://www.w3.org/1999/xlink" xml:space="preserve" xmlns:serif="http://www.serif.com/" style="fill-rule:evenodd;clip-rule:evenodd;stroke-linejoin:round;stroke-miterlimit:2;"><g id="Ebene_2"><g id="Ebene_1-2"><path d="M146.812,146.813c195.62,-195.62 513.256,-195.62 708.875,-0c195.619,195.619 195.619,513.255 -0,708.874c-195.619,195.62 -513.255,195.62 -708.875,0c-195.619,-195.619 -195.619,-513.255 0,-708.874Z" style="fill:url(#_Radial1);"/><path d="M705.542,563.625c-2.203,-0.091 -4.41,0.049 -6.584,0.417c-1.407,0.177 -2.799,0.455 -4.166,0.833c-16.63,4.514 -28.261,19.723 -28.261,36.954c0,20.366 16.248,37.351 36.594,38.254c2.203,0.072 4.407,-0.068 6.583,-0.416c20.609,-3.192 35.027,-22.646 32.084,-43.292c-2.45,-18.165 -17.767,-32.067 -36.084,-32.75" style="fill-opacity:0.1;fill-rule:nonzero;"/><path d="M773.708,540.875c-2.501,5.666 -3.793,11.793 -3.793,17.986c0,23.839 19.137,43.667 42.96,44.514c5.838,0.209 11.656,-0.798 17.083,-2.958c11.003,-4.163 19.872,-12.596 24.584,-23.375c4.847,-10.856 5.147,-23.214 0.833,-34.292c-6.231,-16.637 -21.953,-27.937 -39.708,-28.542c-4.214,-0.154 -8.428,0.324 -12.5,1.417c-1.677,0.402 -3.321,0.931 -4.917,1.583c-10.988,4.238 -19.832,12.707 -24.542,23.5" style="fill-opacity:0.5;fill-rule:nonzero;"/><path d="M303,659.708c3.975,1.632 8.206,2.549 12.5,2.709c15.903,0.493 30.504,-9.063 36.417,-23.834c0.458,-1.333 0.958,-2.708 1.375,-4.166c0.925,-3.316 1.395,-6.742 1.395,-10.185c-0,-20.778 -17.098,-37.875 -37.875,-37.875c-20.778,0 -37.875,17.097 -37.875,37.875c-0,15.473 9.481,29.457 23.855,35.185" style="fill-opacity:0.1;fill-rule:nonzero;"/><path d="M291.917,785.875c22.185,3.629 43.753,-10.35 49.5,-32.083c0.47,-1.639 0.819,-3.31 1.041,-5c1.913,-11.712 -0.923,-23.716 -7.875,-33.334c-6.805,-9.583 -17.216,-16.007 -28.833,-17.791c-1.695,-0.29 -3.407,-0.471 -5.125,-0.542c-22.257,-0.583 -41.734,15.528 -45.333,37.5c-1.998,11.702 0.813,23.729 7.791,33.333c6.796,9.594 17.211,16.021 28.834,17.792" style="fill-opacity:0.25;fill-rule:nonzero;"/><path d="M521.458,250.583c-6.775,-8.858 -17.186,-14.217 -28.333,-14.583c-0.379,-0.011 -0.758,-0.017 -1.136,-0.017c-20.961,0 -38.209,17.248 -38.209,38.208c0,8.521 2.851,16.802 8.095,23.517c0.876,1.128 1.822,2.2 2.833,3.209c13.348,13.868 35.316,15.322 50.375,3.333c16.267,-13.093 19.122,-37.127 6.375,-53.667" style="fill-opacity:0.1;fill-rule:nonzero;"/><path d="M365.75,171.542c-13.995,17.61 -12.776,43.136 2.833,59.333c1.209,1.208 2.459,2.417 3.75,3.5c7.392,6.121 16.616,9.611 26.209,9.917c2.099,0.077 4.202,0.008 6.291,-0.209c11.683,-1.217 22.39,-7.112 29.667,-16.333c14.994,-19.151 12.059,-47.127 -6.583,-62.75c-7.392,-6.121 -16.616,-9.611 -26.209,-9.917c-2.071,-0.054 -4.145,0.016 -6.208,0.209c-11.736,1.055 -22.52,6.946 -29.75,16.25" style="fill-opacity:0.25;fill-rule:nonzero;"/><g><path d="M886,509.917c9.259,13.806 24.597,22.367 41.208,23c10.953,0.366 21.739,-2.806 30.75,-9.042c15.4,-9.486 24.806,-26.329 24.806,-44.416c0,-28.618 -23.549,-52.166 -52.166,-52.166c-10.988,-0 -21.699,3.471 -30.598,9.915c-23.541,16.287 -29.749,48.915 -13.833,72.709" style="fill:#181818;fill-rule:nonzero;"/><path d="M310.417,829.167c-1.859,-0.146 -3.725,-0.146 -5.584,-0c-21.883,1.695 -40.455,17.038 -46.25,38.208c-1.588,5.76 -2.194,11.747 -1.791,17.708c1.69,26.497 23.464,47.636 50,48.542l5.5,0c21.8,-1.791 40.262,-17.112 46.041,-38.208c1.537,-5.784 2.128,-11.778 1.75,-17.75c-1.697,-26.362 -23.272,-47.43 -49.666,-48.5" style="fill:#181818;fill-rule:nonzero;"/><path d="M238.625,175c4.171,4.22 8.997,7.738 14.292,10.417c6.491,3.208 13.596,4.984 20.833,5.208c20.524,0.653 39.599,-10.89 48.542,-29.375c9.414,-19.894 5.501,-43.673 -9.792,-59.5c-4.194,-4.212 -9.032,-7.728 -14.333,-10.417c-6.489,-3.213 -13.596,-4.989 -20.834,-5.208c-20.429,-0.564 -39.361,11.015 -48.166,29.458c-9.599,19.783 -5.809,43.592 9.458,59.417" style="fill:#181818;fill-rule:nonzero;"/><circle cx="501.25" cy="501.25" r="424.583" style="fill:#fff;"/><path d="M501.917,934.625c-10.639,0 -21.306,-0.389 -32,-1.167c-225.569,-16.321 -402.448,-206.46 -402.448,-432.619c0,-125.89 54.807,-245.743 150.031,-328.089c78.461,-66.839 178.232,-103.573 281.303,-103.573c237.971,-0 433.791,195.82 433.791,433.791c0,124.752 -53.815,243.631 -147.552,325.949c-78.493,68.251 -179.109,105.818 -283.125,105.708Zm-1.292,-850.583c-228.423,0.222 -416.26,188.243 -416.26,416.666c-0,100.158 36.113,197.034 101.677,272.75c79.1,91.365 194.161,143.94 315.009,143.94c228.577,0 416.667,-188.09 416.667,-416.667c0,-217.171 -169.788,-399.781 -386.385,-415.564c-10.25,-0.75 -20.486,-1.125 -30.708,-1.125Z" style="fill:#181818;fill-rule:nonzero;"/><path d="M740.458,486.375l-478.375,0c-4.207,-0.966 -7.322,-4.572 -7.666,-8.875c0.344,-4.303 3.459,-7.909 7.666,-8.875l478.375,0c4.191,0.981 7.287,4.584 7.625,8.875c-0.338,4.291 -3.434,7.894 -7.625,8.875Z" style="fill:#181818;fill-rule:nonzero;"/></g><path d="M285.458,412.5c-7.957,0.193 -15.599,-3.17 -20.833,-9.167c-5.637,-6.435 -8.618,-14.782 -8.333,-23.333l-0,-3.375c-0.262,-8.623 2.712,-17.039 8.333,-23.583c4.829,-5.964 12.118,-9.417 19.792,-9.375c7.209,-0.387 14.232,2.437 19.166,7.708c4.867,5.718 7.372,13.084 7,20.583l0,6.209l-46.75,-0l0,1.791c-0.235,6.736 1.871,13.35 5.959,18.709c3.686,4.907 9.53,7.736 15.666,7.583c3.975,0.093 7.931,-0.557 11.667,-1.917c3.148,-1.179 5.995,-3.043 8.333,-5.458l2.875,5.292c-2.664,2.712 -5.874,4.828 -9.416,6.208c-4.316,1.535 -8.88,2.256 -13.459,2.125Zm-1,-62.5c-5.242,-0.048 -10.241,2.245 -13.625,6.25c-3.779,4.36 -6.045,9.829 -6.458,15.583l0,0.334l38.917,-0l-0,-1.834c0.163,-5.282 -1.651,-10.44 -5.084,-14.458c-3.475,-3.909 -8.523,-6.066 -13.75,-5.875Z" style="fill:#474747;fill-rule:nonzero;"/><path d="M331.917,405.917l9.958,-0.792l-0,-53.875l-9.958,-0.792l-0,-5.458l17.291,-0l0,60.125l9.917,0.792l0,5.416l-27.208,0l-0,-5.416Zm17.291,-79.875l-7.291,-0l-0,-10.292l7.291,-0l0,10.292Z" style="fill:#474747;fill-rule:nonzero;"/><path d="M378.833,405.917l9.917,-0.792l0,-53.875l-9.917,-0.792l0,-5.458l16.667,-0l0.333,11.583c3.98,-8.123 12.42,-13.154 21.459,-12.791c6.184,-0.413 12.231,2.012 16.416,6.583c4.244,5.939 6.279,13.179 5.75,20.458l0,34.167l9.959,0.792l-0,5.416l-27.334,0l0,-5.416l9.917,-0.792l0,-34.167c0.565,-5.71 -0.912,-11.44 -4.167,-16.166c-3.151,-3.295 -7.62,-5.009 -12.166,-4.667c-4.531,-0.158 -8.97,1.322 -12.5,4.167c-3.345,2.829 -5.781,6.584 -7,10.791l-0,40.084l9.916,0.791l0,5.417l-27.416,0l0.166,-5.333Z" style="fill:#474747;fill-rule:nonzero;"/><path d="M468.583,351.083l0,-6l10.959,0l-0,-9.708c-0.364,-5.58 1.41,-11.094 4.958,-15.417c3.642,-3.802 8.788,-5.802 14.042,-5.458c1.394,-0.013 2.787,0.084 4.166,0.292c1.404,0.214 2.795,0.506 4.167,0.875l-0.958,6.041c-0.959,-0.25 -1.959,-0.416 -3,-0.583c-1.194,-0.063 -2.39,-0.063 -3.584,0c-3.504,-0.202 -6.915,1.212 -9.25,3.833c-2.302,3.045 -3.44,6.815 -3.208,10.625l0,9.709l15.792,-0l-0,6l-15.625,-0l-0,54.166l9.916,0.792l0,5.417l-27.375,-0l0,-5.417l9.959,-0.792l-0,-54.166l-10.959,-0.209Z" style="fill:#474747;fill-rule:nonzero;"/><path d="M568.5,411.333c-0.5,-2.25 -0.833,-4.166 -1.042,-5.833c-0.221,-1.643 -0.319,-3.301 -0.291,-4.958c-2.583,3.582 -5.945,6.531 -9.834,8.625c-4.221,2.323 -8.973,3.515 -13.791,3.458c-5.476,0.333 -10.873,-1.476 -15.042,-5.042c-3.661,-3.555 -5.608,-8.528 -5.333,-13.625c-0.135,-5.892 2.866,-11.434 7.875,-14.541c6.444,-3.923 13.924,-5.811 21.458,-5.417l14.667,0l-0,-8.75c0.155,-4.2 -1.554,-8.26 -4.667,-11.083c-3.515,-2.872 -7.965,-4.355 -12.5,-4.167c-3.42,-0.042 -6.824,0.464 -10.083,1.5c-2.777,0.907 -5.362,2.32 -7.625,4.167l-0.584,8.875l-6.291,-0l-0,-12.5c3.314,-2.685 7.062,-4.785 11.083,-6.209c4.352,-1.443 8.915,-2.148 13.5,-2.083c6.351,-0.3 12.605,1.681 17.625,5.583c4.581,4.007 7.047,9.926 6.667,16l-0,36.459c0.04,1.229 0.165,2.454 0.375,3.666l6.625,0.417l-0,5.417l-12.792,0.041Zm-24.167,-5.208c4.939,0.087 9.805,-1.212 14.042,-3.75c3.802,-2.206 6.841,-5.521 8.708,-9.5l0,-13.208l-14.708,-0c-5.619,-0.269 -11.188,1.185 -15.958,4.166c-3.641,2.235 -5.892,6.187 -5.959,10.459c-0.113,3.27 1.249,6.424 3.709,8.583c2.861,2.317 6.491,3.478 10.166,3.25Z" style="fill:#474747;fill-rule:nonzero;"/><path d="M628.917,406.417c4.635,0.082 9.167,-1.385 12.875,-4.167c3.659,-2.697 5.753,-7.04 5.583,-11.583l6.5,-0l0,0.375c0.251,6.017 -2.499,11.783 -7.333,15.375c-4.978,4.033 -11.22,6.187 -17.625,6.083c-8.029,0.436 -15.793,-3.027 -20.834,-9.292c-5.162,-6.843 -7.799,-15.268 -7.458,-23.833l0,-2.583c-0.341,-8.553 2.296,-16.965 7.458,-23.792c5.041,-6.264 12.805,-9.727 20.834,-9.292c4.833,-0.071 9.625,0.91 14.041,2.875c4.017,1.755 7.56,4.44 10.334,7.834l0.291,14.458l-6.208,-0l-1.167,-11.75c-2.007,-2.273 -4.499,-4.067 -7.291,-5.25c-3.146,-1.338 -6.541,-1.992 -9.959,-1.917c-6.232,-0.417 -12.242,2.485 -15.791,7.625c-3.591,5.744 -5.363,12.441 -5.084,19.209l0,2.583c-0.286,6.802 1.471,13.537 5.042,19.333c3.518,5.185 9.54,8.125 15.792,7.709Z" style="fill:#474747;fill-rule:nonzero;"/><path d="M674.167,321.25l-0,-5.458l17.5,-0l-0,40.625c4.251,-7.935 12.669,-12.792 21.666,-12.5c5.955,-0.306 11.752,2.028 15.834,6.375c4.248,5.82 6.247,12.987 5.625,20.166l-0,34.667l9.916,0.792l0,5.416l-27.333,0l-0,-5.416l9.958,-0.792l0,-34.792c0.554,-5.487 -0.93,-10.992 -4.166,-15.458c-3.012,-3.267 -7.311,-5.05 -11.75,-4.875c-4.492,-0.119 -8.896,1.275 -12.5,3.958c-3.447,2.707 -6.038,6.354 -7.459,10.5l0,40.5l9.959,0.792l-0,5.417l-27.25,-0l-0,-5.417l9.958,-0.792l0,-83.333l-9.958,-0.375Z" style="fill:#474747;fill-rule:nonzero;"/><rect x="254.833" y="544.25" width="8.625" height="139.583" style="fill:#474747;fill-rule:nonzero;"/><path d="M455.417,614.042c0.073,9.737 -1.447,19.42 -4.5,28.666c-2.764,8.52 -7.166,16.419 -12.959,23.25c-5.738,6.627 -12.846,11.93 -20.833,15.542c-17.912,7.537 -38.129,7.537 -56.042,0c-7.987,-3.611 -15.096,-8.914 -20.833,-15.542c-5.793,-6.831 -10.195,-14.73 -12.958,-23.25c-6,-18.623 -6,-38.668 -0,-57.291c2.753,-8.525 7.156,-16.425 12.958,-23.25c5.729,-6.637 12.84,-11.941 20.833,-15.542c17.904,-7.58 38.138,-7.58 56.042,-0c7.995,3.598 15.106,8.903 20.833,15.542c5.829,6.813 10.248,14.716 13,23.25c3.037,9.234 4.543,18.904 4.459,28.625Zm-124.125,-0c-0.078,8.628 1.245,17.212 3.916,25.416c2.414,7.604 6.261,14.676 11.334,20.834c10.484,12.623 26.177,19.794 42.583,19.458c8.423,0.132 16.765,-1.679 24.375,-5.292c6.929,-3.422 13.073,-8.246 18.042,-14.166c5.082,-6.158 8.943,-13.229 11.375,-20.834c5.208,-16.541 5.208,-34.291 -0,-50.833c-2.419,-7.61 -6.281,-14.684 -11.375,-20.833c-4.955,-5.945 -11.102,-10.785 -18.042,-14.209c-7.606,-3.621 -15.953,-5.419 -24.375,-5.25c-16.413,-0.373 -32.123,6.805 -42.583,19.459c-5.082,6.151 -8.93,13.225 -11.334,20.833c-2.664,8.206 -3.986,16.789 -3.916,25.417Z" style="fill:#474747;fill-rule:nonzero;"/><path d="M491.375,551.75l0,-7.417l106.958,0l0,7.417l-49.291,0l-0,132.083l-8.625,0l-0,-132.083l-49.042,0Z" style="fill:#474747;fill-rule:nonzero;"/><path d="M628.042,683.833l-9.209,0l56.167,-139.583l9.375,0l55.125,139.583l-9.167,0l-50.25,-131.166l-0.416,-0l-51.625,131.166Z" style="fill:#474747;fill-rule:nonzero;"/></g></g><defs><radialGradient id="_Radial1" cx="0" cy="0" r="1" gradientUnits="userSpaceOnUse" gradientTransform="matrix(-500.547,-18.4025,18.4025,-500.547,467.476,525.716)"><stop offset="0" style="stop-color:#fff;stop-opacity:0"/><stop offset="0.8" style="stop-color:#fff;stop-opacity:0"/><stop offset="1" style="stop-color:#fff;stop-opacity:0"/></radialGradient></defs></svg>