<?xml version="1.0" encoding="UTF-8" standalone="no"?><!DOCTYPE svg PUBLIC "-//W3C//DTD SVG 1.1//EN" "http://www.w3.org/Graphics/SVG/1.1/DTD/svg11.dtd"><svg width="100%" height="100%" viewBox="0 0 400 400" version="1.1" xmlns="http://www.w3.org/2000/svg" xmlns:xlink="http://www.w3.org/1999/xlink" xml:space="preserve" xmlns:serif="http://www.serif.com/" style="fill-rule:evenodd;clip-rule:evenodd;stroke-linecap:round;stroke-linejoin:round;stroke-miterlimit:1.5;"><g><path d="M317.7,31.392c5.027,-0.002 9.797,2.219 13.029,6.068c8.24,9.813 24.439,29.104 33.159,39.488c3.803,4.529 5.877,10.259 5.855,16.173c-0.144,37.764 -0.697,182.373 -0.938,245.601c-0.063,16.524 -13.476,29.886 -30,29.886l-278.548,0c-16.569,0 -30,-13.432 -30,-30l0,-247.033c0,-5.82 2.031,-11.458 5.742,-15.942c8.294,-10.018 23.495,-28.382 31.411,-37.944c3.227,-3.898 8.024,-6.156 13.085,-6.159c37.916,-0.022 199.422,-0.116 237.205,-0.138Z" style="fill:#262626;"/><path d="M72.824,68.463c-0.386,-0.001 -0.737,-0.224 -0.902,-0.573c-0.165,-0.35 -0.113,-0.762 0.131,-1.061c2.762,-3.369 9.123,-11.129 12.445,-15.18c1.332,-1.625 3.324,-2.566 5.425,-2.562c25.795,0.044 193.832,0.333 218.999,0.376c2.005,0.004 3.912,0.867 5.238,2.37c3.572,4.05 10.778,12.218 13.876,15.731c0.261,0.295 0.324,0.715 0.161,1.074c-0.162,0.359 -0.52,0.588 -0.914,0.587c-23.814,-0.071 -231.27,-0.692 -254.459,-0.762Z" style="fill:#b9bcc3;stroke:#b9bcc3;stroke-width:1px;"/><path d="M250.318,119.063c0,-2.127 -1.727,-3.853 -3.854,-3.853l-91.357,0c-2.127,0 -3.854,1.726 -3.854,3.853l0,7.707c0,2.127 1.727,3.854 3.854,3.854l91.357,0c2.127,0 3.854,-1.727 3.854,-3.854l0,-7.707Z" style="fill:#b9bcc3;stroke:#b9bcc3;stroke-width:1px;"/></g><g><path d="M278.753,166.947c-15.855,-15.859 -41.599,-15.859 -57.454,0l-57.455,57.47c-15.855,15.859 -15.855,41.61 0,57.469l57.455,57.47c15.855,15.859 41.599,15.859 57.454,0l57.455,-57.47c15.855,-15.859 15.855,-41.61 0,-57.469l-57.455,-57.47Z" style="stroke:#000;stroke-width:2.72px;"/><g transform="matrix(0.336163,-0.318097,0.318015,0.33625,103.683,260.544)"><text x="18.949px" y="298.808px" style="font-family:'ArialMT', 'Arial', sans-serif;font-size:291.667px;fill:#262626;">G</text><text x="245.816px" y="298.808px" style="font-family:'Arial-BoldMT', 'Arial', sans-serif;font-weight:700;font-size:291.667px;fill:#262626;">A</text></g></g></svg>