<?xml version="1.0" encoding="UTF-8" standalone="no"?>
<!DOCTYPE svg PUBLIC "-//W3C//DTD SVG 1.1//EN" "http://www.w3.org/Graphics/SVG/1.1/DTD/svg11.dtd">
<svg width="100%" height="100%" viewBox="0 0 11812 11812" version="1.1" xmlns="http://www.w3.org/2000/svg" xmlns:xlink="http://www.w3.org/1999/xlink" xml:space="preserve" xmlns:serif="http://www.serif.com/" style="fill-rule:evenodd;clip-rule:evenodd;stroke-linecap:round;stroke-linejoin:round;stroke-miterlimit:1.5;">
    <g transform="matrix(0.909484,0,0,0.909484,151.133,1026.13)">
        <text x="1604.73px" y="9001.71px" style="font-family:'ArialMT', 'Arial', sans-serif;font-size:1200px;">S O L<tspan x="4628.16px 4961.56px 5828.16px 6139.88px 6851.21px 7184.61px " y="9001.71px 9001.71px 9001.71px 9001.71px 9001.71px 9001.71px "> U T I</tspan> O N S</text>
    </g>
    <path d="M5308.19,2512.56L6404.93,2508.7L6404.93,8172.7L5308.19,8172.7L5308.19,2512.56Z" style="stroke:white;stroke-width:1px;"/>
    <path d="M5136.56,8172.7L5136.56,6110.64L2808.1,2508.7L1604.73,2508.7L1604.73,8172.7L2807.89,8172.7L2807.89,4670.04L5136.56,8172.7Z" style="stroke:white;stroke-width:1px;"/>
    <path d="M6558.98,6299.19L6556.78,4852.37L8621.64,2508.7L10097.1,2512.56L8050.5,4716.72L10206.3,8172.7L8788.54,8172.7L7295.26,5515.83L6558.98,6299.19Z" style="stroke:white;stroke-width:1px;"/>
</svg>
